# xmcd CD database file generated by LOLA_Freedb v0.9beta0
# 
# Track frame offsets:
#      150
#      15005
#      35004
#      53917
#      76155
#      90298
#      128686
#      150888
# 
# Disc length: 2229 seconds
# 
# Revision: 0 
# Processed by: cddbd v1.5.1PL2 Copyright (c) Steve Scherf et al.
# Submitted via: LOLA_Freedb v0.9beta0
# 
DISCID=4308b308
DTITLE=Friedemann - The beginning of hope
DYEAR=1900
DGENRE=
TTITLE0=Gigolo
TTITLE1=For a friend
TTITLE2=Ich kann nicht bleiben
TTITLE3=Rock between the stars
TTITLE4=The beginning of hope
TTITLE5=Tuning
TTITLE6=Eure Chancen
TTITLE7=Jungle tune
EXTD=
EXTT0=
EXTT1=
EXTT2=
EXTT3=
EXTT4=
EXTT5=
EXTT6=
EXTT7=
PLAYORDER=
